<?xml version="1.0" standalone="no"?><!DOCTYPE svg PUBLIC "-//W3C//DTD SVG 1.1//EN" "http://www.w3.org/Graphics/SVG/1.1/DTD/svg11.dtd"><svg t="1711595438075" class="icon" viewBox="0 0 1024 1024" version="1.1" xmlns="http://www.w3.org/2000/svg" p-id="4726" xmlns:xlink="http://www.w3.org/1999/xlink" width="200" height="200"><path d="M732.672 984.064H303.616c-14.336 0-25.6-11.264-25.6-25.6s11.264-25.6 25.6-25.6h429.056c14.336 0 25.6 11.264 25.6 25.6s-11.264 25.6-25.6 25.6z" p-id="4727"></path><path d="M518.144 947.2c-14.336 0-25.6-11.264-25.6-25.6V794.624c0-14.336 11.264-25.6 25.6-25.6s25.6 11.264 25.6 25.6V921.6c0 14.336-11.264 25.6-25.6 25.6zM309.76 677.888c-14.336 0-25.6-11.264-25.6-25.6V277.504c0-14.336 11.264-25.6 25.6-25.6s25.6 11.264 25.6 25.6v374.784c0 14.336-11.264 25.6-25.6 25.6z" p-id="4728"></path><path d="M247.808 399.36a61.952 61.952 0 1 0 123.904 0 61.952 61.952 0 1 0-123.904 0z" p-id="4729"></path><path d="M309.76 486.912c-48.128 0-87.552-39.424-87.552-87.552s39.424-87.552 87.552-87.552 87.552 39.424 87.552 87.552-39.424 87.552-87.552 87.552z m0-123.904c-19.968 0-36.352 16.384-36.352 36.352s16.384 36.352 36.352 36.352 36.352-16.384 36.352-36.352-16.384-36.352-36.352-36.352z m402.432 314.88c-14.336 0-25.6-11.264-25.6-25.6V277.504c0-14.336 11.264-25.6 25.6-25.6s25.6 11.264 25.6 25.6v374.784c0 14.336-11.264 25.6-25.6 25.6z" p-id="4730"></path><path d="M650.24 399.36a61.952 61.952 0 1 0 123.904 0 61.952 61.952 0 1 0-123.904 0z" p-id="4731"></path><path d="M712.192 486.912c-48.128 0-87.552-39.424-87.552-87.552s39.424-87.552 87.552-87.552c48.128 0 87.552 39.424 87.552 87.552s-39.424 87.552-87.552 87.552z m0-123.904c-19.968 0-36.352 16.384-36.352 36.352s16.384 36.352 36.352 36.352 36.352-16.384 36.352-36.352-16.384-36.352-36.352-36.352zM516.608 678.4c-14.336 0-25.6-11.264-25.6-25.6V278.016c0-14.336 11.264-25.6 25.6-25.6s25.6 11.264 25.6 25.6V652.8c0 14.336-11.264 25.6-25.6 25.6z" p-id="4732"></path><path d="M454.656 530.944a61.952 61.952 0 1 0 123.904 0 61.952 61.952 0 1 0-123.904 0z" p-id="4733"></path><path d="M516.608 618.496c-48.128 0-87.552-39.424-87.552-87.552 0-48.128 39.424-87.552 87.552-87.552 48.128 0 87.552 39.424 87.552 87.552 0 48.128-39.424 87.552-87.552 87.552z m0-123.904c-19.968 0-36.352 16.384-36.352 36.352s16.384 36.352 36.352 36.352 36.352-16.384 36.352-36.352-16.384-36.352-36.352-36.352z" p-id="4734"></path><path d="M988.16 820.224H47.616c-14.336 0-25.6-11.264-25.6-25.6v-670.72c0-14.336 11.264-25.6 25.6-25.6H988.16c14.336 0 25.6 11.264 25.6 25.6v670.72c0 14.336-11.264 25.6-25.6 25.6z m-914.944-51.2H962.56v-619.52H73.216v619.52z" p-id="4735"></path></svg>