<svg t="1712742662547" class="icon" viewBox="0 0 1024 1024" version="1.1" xmlns="http://www.w3.org/2000/svg" p-id="4738" width="128" height="128"><path d="M640 864l-64-128 326.4 0c32 0 57.6-25.6 57.6-57.6L960 153.6c0-32-25.6-57.6-57.6-57.6L121.6 96C89.6 96 64 121.6 64 153.6l0 524.8c0 32 25.6 57.6 57.6 57.6L448 736l-64 128L0 864l0 64 1024 0 0-64L640 864zM185.6 672C153.6 672 128 646.4 128 614.4L128 217.6c0-32 25.6-57.6 57.6-57.6l652.8 0c32 0 57.6 25.6 57.6 57.6l0 396.8c0 32-25.6 57.6-57.6 57.6L185.6 672z" fill="#000000" p-id="4739"></path></svg>